<?xml version="1.0" encoding="UTF-8" standalone="no"?>
<!-- Created with Inkscape (http://www.inkscape.org/) -->

<svg
   xmlns:dc="http://purl.org/dc/elements/1.1/"
   xmlns:cc="http://creativecommons.org/ns#"
   xmlns:rdf="http://www.w3.org/1999/02/22-rdf-syntax-ns#"
   xmlns:svg="http://www.w3.org/2000/svg"
   xmlns="http://www.w3.org/2000/svg"
   xmlns:xlink="http://www.w3.org/1999/xlink"
   xmlns:sodipodi="http://sodipodi.sourceforge.net/DTD/sodipodi-0.dtd"
   xmlns:inkscape="http://www.inkscape.org/namespaces/inkscape"
   width="210mm"
   height="297mm"
   viewBox="0 0 210 297"
   version="1.1"
   id="svg8118"
   inkscape:version="0.92.4 (5da689c313, 2019-01-14)"
   sodipodi:docname="goldring.svg">
  <defs
     id="defs8112">
    <linearGradient
       inkscape:collect="always"
       xlink:href="#linearGradient2063"
       id="linearGradient2065"
       x1="67.638924"
       y1="105.87716"
       x2="121.1151"
       y2="66.94561"
       gradientUnits="userSpaceOnUse"
       gradientTransform="translate(11.078343,11.962127)" />
    <linearGradient
       inkscape:collect="always"
       id="linearGradient2063">
      <stop
         style="stop-color:#e5cc83;stop-opacity:1"
         offset="0"
         id="stop2059" />
      <stop
         id="stop2067"
         offset="0.22534053"
         style="stop-color:#955608;stop-opacity:1" />
      <stop
         style="stop-color:#d0ac4f;stop-opacity:1"
         offset="0.4423911"
         id="stop2069" />
      <stop
         id="stop2071"
         offset="0.67558861"
         style="stop-color:#aa7a3e;stop-opacity:1" />
      <stop
         style="stop-color:#f0e3ae;stop-opacity:1"
         offset="1"
         id="stop2061" />
    </linearGradient>
    <filter
       inkscape:collect="always"
       style="color-interpolation-filters:sRGB"
       id="filter2425"
       x="-0.010804238"
       width="1.0216085"
       y="-0.013493385"
       height="1.0269868">
      <feGaussianBlur
         inkscape:collect="always"
         stdDeviation="0.28497784"
         id="feGaussianBlur2427" />
    </filter>
  </defs>
  <sodipodi:namedview
     id="base"
     pagecolor="#ffffff"
     bordercolor="#666666"
     borderopacity="1.0"
     inkscape:pageopacity="0.0"
     inkscape:pageshadow="2"
     inkscape:zoom="1.4"
     inkscape:cx="455.8542"
     inkscape:cy="719.30725"
     inkscape:document-units="mm"
     inkscape:current-layer="layer1"
     showgrid="false"
     inkscape:window-width="2560"
     inkscape:window-height="1377"
     inkscape:window-x="-8"
     inkscape:window-y="-8"
     inkscape:window-maximized="1" />
  <metadata
     id="metadata8115">
    <rdf:RDF>
      <cc:Work
         rdf:about="">
        <dc:format>image/svg+xml</dc:format>
        <dc:type
           rdf:resource="http://purl.org/dc/dcmitype/StillImage" />
        <dc:title></dc:title>
      </cc:Work>
    </rdf:RDF>
  </metadata>
  <g
     inkscape:label="Layer 1"
     inkscape:groupmode="layer"
     id="layer1">
    <path
       style="opacity:1;fill:url(#linearGradient2065);fill-opacity:1;stroke:none;stroke-width:0.26499999;stroke-linecap:round;stroke-linejoin:round;stroke-miterlimit:4;stroke-dasharray:none;stroke-dashoffset:0;stroke-opacity:0.69060771;filter:url(#filter2425)"
       d="m 105.07217,73.223177 c -6.427364,-0.009 -11.325945,-0.008 -15.080225,0.0377 -1.877132,0.0229 -3.468392,0.0571 -4.821392,0.10697 -1.35303,0.0499 -2.46809,0.11528 -3.3931,0.20102 -0.92498,0.0857 -1.65997,0.19194 -2.25308,0.32246 -0.59309,0.13052 -1.04415,0.28553 -1.40145,0.46974 -0.35732,0.18421 -0.62111,0.3976 -0.83873,0.64441 -0.21762,0.2468 -0.38923,0.52711 -0.56327,0.84542 -0.16997,0.31088 -0.32459,0.66004 -0.46559,1.06247 -0.14102,0.40243 -0.26857,0.85822 -0.38293,1.38131 -0.11435,0.52309 -0.21587,1.1136 -0.30594,1.78645 -0.09,0.67286 -0.16861,1.42772 -0.23667,2.27945 -0.1361,1.70346 -0.23037,3.79415 -0.29249,6.38772 -0.0621,2.59358 -0.092,5.69014 -0.0987,9.40667 -0.007,3.810333 0.0191,7.050123 0.0842,9.795783 0.0651,2.74567 0.16918,4.99735 0.31882,6.83266 0.0748,0.91765 0.16111,1.73098 0.25943,2.44998 0.0983,0.719 0.20889,1.34345 0.33229,1.88309 0.1234,0.53963 0.25974,0.99451 0.40979,1.37407 0.15004,0.37956 0.31369,0.68417 0.49196,0.92295 0.22347,0.29931 0.44643,0.55175 0.68625,0.76636 0.23985,0.2146 0.49684,0.39105 0.78859,0.53898 0.29176,0.14794 0.6181,0.26709 0.99735,0.36639 0.37925,0.0993 0.81132,0.17884 1.31363,0.24753 0.59486,0.0814 1.61449,0.15475 2.96518,0.21962 1.3507,0.0649 3.03218,0.12139 4.950092,0.16898 3.8358,0.0952 8.617541,0.15499 13.590385,0.17622 4.97284,0.0212 10.13721,0.004 14.7381,-0.0553 4.60089,-0.0592 8.63854,-0.16044 11.35848,-0.30644 1.34607,-0.0723 2.67502,-0.16623 3.73208,-0.25942 1.05707,-0.0932 1.84187,-0.18511 2.09961,-0.25425 0.31472,-0.0844 0.63238,-0.23113 0.93741,-0.42375 0.30504,-0.19261 0.59749,-0.43139 0.86146,-0.70021 0.26395,-0.26882 0.49943,-0.56752 0.69091,-0.88057 0.19148,-0.31304 0.33925,-0.64055 0.42685,-0.96583 0.25553,-0.94902 0.47077,-2.14482 0.64749,-3.61528 0.17674,-1.47046 0.31488,-3.21537 0.41547,-5.26221 0.10062,-2.04684 0.16402,-4.39583 0.19122,-7.07399 0.0272,-2.67816 0.0182,-5.685673 -0.0253,-9.050093 -0.0477,-3.68677 -0.10846,-6.66533 -0.2005,-9.08679 -0.0921,-2.42145 -0.21553,-4.28544 -0.38759,-5.74383 -0.086,-0.7292 -0.18389,-1.35711 -0.2966,-1.90221 -0.11274,-0.54511 -0.24011,-1.00784 -0.38396,-1.40663 -0.14386,-0.3988 -0.30425,-0.73344 -0.48369,-1.02371 -0.17947,-0.29027 -0.37788,-0.53599 -0.5974,-0.75551 -0.22963,-0.22965 -0.50639,-0.46396 -0.76687,-0.65681 -0.26048,-0.19285 -0.50467,-0.34427 -0.67024,-0.40721 -0.36489,-0.13873 -1.21362,-0.25901 -2.57297,-0.36225 -1.35935,-0.10325 -3.22932,-0.18957 -5.6379,-0.2589 -4.81719,-0.13867 -11.78764,-0.21075 -21.13049,-0.22324 z m 0.66146,1.7849 c 6.57028,0.001 11.61578,0.0117 15.50447,0.061 1.94437,0.0246 3.5991,0.0592 5.01107,0.10697 1.41198,0.0478 2.58112,0.10873 3.55275,0.18707 0.97163,0.0783 1.74609,0.17411 2.36937,0.29042 0.62328,0.1163 1.09548,0.25326 1.46243,0.41496 0.36698,0.1617 0.62884,0.34773 0.83148,0.56224 0.20267,0.2145 0.3461,0.45753 0.47646,0.73225 0.14605,0.30779 0.28485,0.92026 0.41445,1.77664 0.12959,0.85638 0.24995,1.95649 0.35914,3.2396 0.21842,2.56621 0.39193,5.86427 0.50541,9.40614 0.11345,3.54187 0.16687,7.327574 0.14417,10.870143 -0.0114,1.77128 -0.0418,3.48184 -0.093,5.07049 -0.0513,1.58864 -0.12353,3.05565 -0.21857,4.33979 -0.16798,2.26924 -0.29641,3.97507 -0.47543,5.26531 -0.0895,0.64512 -0.19164,1.1859 -0.31782,1.64176 -0.12615,0.45586 -0.27606,0.82657 -0.46146,1.13016 -0.18542,0.30359 -0.40611,0.54032 -0.67333,0.72864 -0.26726,0.18832 -0.58127,0.32818 -0.95293,0.43821 -0.37166,0.11004 -0.80097,0.19015 -1.29966,0.2589 -0.49868,0.0687 -1.06635,0.12623 -1.71463,0.19069 -0.86773,0.0863 -3.59751,0.16358 -7.30343,0.22634 -3.70588,0.0628 -8.38808,0.11091 -13.16094,0.13953 -4.77287,0.0286 -9.63647,0.0373 -13.705105,0.0212 -4.06863,-0.0161 -7.34216,-0.0572 -8.935382,-0.12868 -2.00699,-0.0901 -3.54706,-0.17027 -4.73924,-0.28525 -0.59611,-0.0575 -1.10535,-0.12381 -1.54255,-0.20412 -0.4372,-0.0803 -0.80235,-0.17466 -1.11053,-0.28888 -0.30816,-0.11421 -0.55939,-0.24853 -0.76841,-0.40772 -0.20904,-0.15919 -0.37597,-0.34339 -0.51575,-0.55862 -0.13978,-0.21524 -0.25254,-0.46128 -0.35293,-0.74363 -0.10041,-0.28235 -0.1882,-0.60115 -0.27905,-0.9617 -0.16664,-0.6611 -0.30798,-1.74234 -0.42479,-3.13572 -0.11682,-1.39339 -0.20908,-3.09884 -0.27803,-5.00745 -0.0689,-1.9086 -0.11488,-4.02025 -0.13798,-6.22701 -0.0231,-2.20676 -0.0234,-4.508639 -0.003,-6.796483 0.0208,-2.28785 0.0628,-4.56194 0.12557,-6.7138 0.0627,-2.15187 0.14586,-4.1817 0.24855,-5.98052 0.10271,-1.79882 0.22521,-3.36636 0.36586,-4.59507 0.0704,-0.61435 0.14534,-1.14397 0.22479,-1.57509 0.0795,-0.43113 0.16336,-0.76419 0.25168,-0.98496 0.12162,-0.30398 0.24103,-0.5708 0.40772,-0.80563 0.16671,-0.23484 0.38071,-0.43729 0.6904,-0.61185 0.3097,-0.17456 0.71544,-0.32125 1.26609,-0.44442 0.55062,-0.12316 1.24626,-0.22321 2.13577,-0.30386 0.8895,-0.0806 1.97273,-0.14212 3.29903,-0.18913 1.32631,-0.047 2.895262,-0.0795 4.756292,-0.1018 3.72207,-0.0445 8.611971,-0.0483 15.060585,-0.047 z"
       id="path2053"
       inkscape:connector-curvature="0"
       inkscape:export-xdpi="96"
       inkscape:export-ydpi="96" />
  </g>
</svg>
